# xmcd
#
# Track frame offsets:
#	150
#	17102
#	35862
#	53990
#	71412
#	90625
#	105712
#	122962
#	141162
#	163685
#
# Disc length: 2568 seconds
#
# Revision: 1
# Processed by: cddbd v1.5.1PL0 Copyright (c) Steve Scherf et al.
# Submitted via: CDex 1.50Beta5
#
DISCID=8e0a060a
DTITLE=Junichi&JJr - 忍たまテーマソングコレクション
DYEAR=1996
DGENRE=
TTITLE0=Junichi&JJr/こうしちゃいられない
TTITLE1=光GENJI/勇気100%
TTITLE2=光GENJI SUPER5/SHAKING NIGHT
TTITLE3=Junichi&JJr/終わらないSCHOOL DAYS
TTITLE4=光GENJI SUPER5/DON’T MIND 涙
TTITLE5=光GENJI/微笑みをあずけて
TTITLE6=Junichi&JJr/0点チャンピオン
TTITLE7=SAY・S/にんにん忍たま音頭
TTITLE8=Junichi&JJr/SING!!
TTITLE9=忍たまオーケストラ/勇気100%
EXTD=
EXTT0=
EXTT1=
EXTT2=
EXTT3=
EXTT4=
EXTT5=
EXTT6=
EXTT7=
EXTT8=
EXTT9=
PLAYORDER=
